<svg width="64" height="64" viewBox="0 0 64 64" fill="none" xmlns="http://www.w3.org/2000/svg">
<rect width="64" height="64" rx="32" fill="#5EC6E8" fill-opacity="0.08"/>
<path d="M24.929 39.0709C23.999 38.1434 23.2615 37.0412 22.7589 35.8277C22.2562 34.6142 21.9983 33.3134 22 31.9999C22 26.4769 26.477 21.9999 32 21.9999C37.523 21.9999 42 26.4769 42 31.9999C42 37.5229 37.523 41.9999 32 41.9999H22L24.929 39.0709ZM28 32.9999C28 34.0608 28.4214 35.0782 29.1716 35.8284C29.9217 36.5785 30.9391 36.9999 32 36.9999C33.0609 36.9999 34.0783 36.5785 34.8284 35.8284C35.5786 35.0782 36 34.0608 36 32.9999H28Z" fill="#289BDC"/>
</svg>
