<svg width="180" height="96" viewBox="0 0 180 96" fill="none" xmlns="http://www.w3.org/2000/svg">
<path d="M65.8507 58.3279V58.5186H57.7169V58.3279C58.631 58.1691 58.991 57.9465 59.0886 57.2475V46.6965C59.0886 44.7567 58.3704 43.8032 56.9004 43.8032C56.4144 43.8128 55.944 43.9717 55.5565 44.2572C55.1689 44.5426 54.884 44.9401 54.7424 45.3927C54.8091 45.7601 54.8421 46.1326 54.8408 46.5058V56.425C54.8408 57.6012 55.1999 58.0784 56.3083 58.3321V58.5228H48.5344V58.3279C49.6445 58.0759 50.0018 57.597 50.0018 56.4208V46.6923C50.0018 44.7525 49.25 43.799 47.8128 43.799C47.3558 43.8031 46.9117 43.9463 46.5426 44.2087C46.1735 44.471 45.8981 44.8392 45.755 45.2616V56.4208C45.755 57.597 46.1141 58.0742 47.2224 58.3279V58.5186H38.9912V58.3279C40.2643 58.0423 40.9178 57.5012 40.9178 56.2276V46.0925C40.9178 44.4072 40.4611 43.8981 38.9912 43.7712V43.5805L45.7524 41.7684V44.7567C46.0373 43.8449 46.6246 43.0508 47.4225 42.4985C48.2205 41.9463 49.1841 41.667 50.1624 41.7045C52.6121 41.7045 54.1477 42.9126 54.6371 44.8844C54.9555 43.9389 55.579 43.1187 56.4147 42.5458C57.2505 41.9729 58.254 41.6778 59.2759 41.7045C62.3143 41.7045 63.9146 43.6124 63.9146 46.5058V56.2343C63.9232 57.5054 64.5766 58.0465 65.8507 58.3279Z" fill="#778CA0"/>
<path d="M83.132 55.0577C82.577 57.662 80.8454 59.0003 78.5571 59.0003C78.1447 59.037 77.7288 58.9935 77.3338 58.8722C76.9388 58.751 76.5726 58.5544 76.2564 58.2941C75.9402 58.0337 75.6804 57.7147 75.4921 57.3557C75.3038 56.9966 75.1908 56.6047 75.1596 56.2028L75.0949 55.9507C74.7963 56.8727 74.1918 57.6723 73.3763 58.2241C72.5608 58.776 71.5803 59.049 70.5883 59.0003C70.0272 59.0428 69.4631 58.9714 68.9319 58.7906C68.4007 58.6097 67.9138 58.3234 67.5023 57.9498C67.0908 57.5762 66.7635 57.1234 66.5412 56.6202C66.319 56.117 66.2065 55.5743 66.2111 55.0266C66.2111 52.1971 68.5632 50.353 72.3198 49.5894L75.031 49.0492V48.3771C75.031 45.929 74.1161 44.2445 71.372 44.2445C69.2495 44.2445 67.7467 45.23 67.0277 47.71L66.7687 47.6462C67.2866 43.99 69.7734 41.7007 73.6284 41.7007C77.9727 41.7007 79.8674 44.4033 79.8674 48.4728V54.8628C79.8674 55.9759 80.4224 56.548 81.1415 56.548C81.7621 56.548 82.4803 56.1986 82.8394 55.0224L83.132 55.0577ZM75.031 55.408V49.8431L73.757 50.0657C71.2089 50.5748 70.7195 52.1324 70.7195 53.69C70.7195 55.3114 71.536 56.5833 73.1036 56.5833C73.5117 56.6134 73.919 56.5156 74.2658 56.3041C74.6127 56.0926 74.8808 55.7786 75.031 55.408Z" fill="#778CA0"/>
<path d="M100.871 58.3282V58.5189H92.6393V58.3282C93.7174 58.0762 94.1067 57.5973 94.1067 56.4211V46.7287C94.1067 44.7889 93.3557 43.8034 91.8201 43.8034C91.2995 43.7991 90.7892 43.9446 90.3533 44.2217C89.9174 44.4989 89.5755 44.8953 89.3704 45.361V56.4253C89.3704 57.6015 89.7295 58.0787 90.8379 58.3324V58.5231H82.6074V58.3282C83.8815 58.0426 84.5349 57.5015 84.5349 56.2279V46.0927C84.5349 44.4075 84.0774 43.8983 82.6074 43.7715V43.5808L89.3696 41.7687V44.8863C89.7008 43.9164 90.3506 43.0795 91.2188 42.5045C92.087 41.9296 93.1255 41.6486 94.174 41.7048C97.2815 41.7048 98.9431 43.5531 98.9431 46.5372V56.2346C98.944 57.5057 99.5974 58.0468 100.871 58.3282Z" fill="#778CA0"/>
<path d="M111.978 54.7718C111.26 57.0922 109.496 59.0001 106.654 59.0001C103.91 59.0001 102.603 57.3149 102.603 54.8357V42.8808H100.709V42.722C103.312 41.2942 105.572 39.3437 107.34 37H107.471V42.2457H110.77V42.8808H107.467V54.1039C107.467 55.5666 108.088 56.552 109.296 56.552C109.858 56.5511 110.402 56.3652 110.841 56.0245C111.28 55.6839 111.587 55.2085 111.713 54.676L111.978 54.7718Z" fill="#778CA0"/>
<path d="M125.535 52.7689C124.718 57.3467 121.746 59.0001 118.904 59.0001C115.114 59.0001 111.653 56.1386 111.653 50.6703C111.653 45.4565 114.626 41.7046 119.101 41.7046C122.269 41.7046 125.536 43.6444 125.503 48.8901H115.442C115.769 52.9596 117.925 55.217 121.094 55.217C121.98 55.2964 122.87 55.0947 123.629 54.642C124.388 54.1893 124.977 53.5099 125.307 52.7051L125.535 52.7689ZM115.408 47.7425V48.092H121.059C121.092 44.0225 120.014 42.5918 118.383 42.5918C116.552 42.5951 115.408 44.566 115.408 47.7425Z" fill="#778CA0"/>
<path d="M138.048 41.7046V46.2832H137.884C137.35 46.0549 136.768 45.9565 136.186 45.9967C134.063 45.9967 132.658 47.1099 132.658 51.3382V56.2344C132.658 57.6626 133.475 58.1095 135.238 58.3347V58.5254H125.896V58.328C127.17 58.0423 127.824 57.5013 127.824 56.2277V46.3782C127.824 44.566 127.333 43.9301 125.896 43.8032V43.6125L132.462 41.7685V48.8901H132.626C132.885 43.7713 134.846 41.7046 137.688 41.7046H138.048Z" fill="#778CA0"/>
<path d="M136.61 56.3294C136.621 55.6362 136.912 54.9749 137.419 54.4879C137.926 54.0009 138.609 53.727 139.321 53.7251C140.028 53.7342 140.703 54.0115 141.203 54.498C141.703 54.9844 141.988 55.6416 141.997 56.3294C142.001 57.0244 141.721 57.6925 141.219 58.1871C140.718 58.6818 140.035 58.9627 139.321 58.9682C138.965 58.9691 138.612 58.9015 138.282 58.7692C137.953 58.6369 137.654 58.4425 137.402 58.1973C137.15 57.9521 136.95 57.6609 136.814 57.3403C136.678 57.0198 136.609 56.6762 136.61 56.3294Z" fill="#778CA0"/>
</svg>
