<svg width="180" height="96" viewBox="0 0 180 96" fill="none" xmlns="http://www.w3.org/2000/svg">
<path d="M57.8203 50.688L61.0713 49.8002C61.125 50.516 61.4596 51.1815 62.0024 51.652C62.638 52.1793 63.4497 52.4471 64.2748 52.4016C64.8897 52.4366 65.4993 52.2703 66.0111 51.9282C66.2034 51.8001 66.3613 51.6268 66.4709 51.4236C66.5805 51.2203 66.6384 50.9933 66.6396 50.7624C66.6405 50.571 66.5992 50.3818 66.5185 50.2082C66.4378 50.0346 66.3197 49.8809 66.1727 49.7581C65.7722 49.4414 65.2937 49.2382 64.7874 49.1698L62.4531 48.6461C61.2527 48.4251 60.1547 47.8261 59.3197 46.937C58.5976 46.1294 58.2062 45.08 58.2235 43.9975C58.2229 43.3217 58.3736 42.6543 58.6643 42.0441C58.9551 41.4339 59.3787 40.8963 59.9042 40.4706C61.0416 39.483 62.5088 38.9579 64.0153 38.9991C64.7808 38.9904 65.5434 39.0959 66.2778 39.312C66.8678 39.4784 67.4269 39.7391 67.9333 40.0841C68.3503 40.3837 68.7195 40.7443 69.0287 41.1539C69.3017 41.5034 69.5291 41.8861 69.7056 42.2928C69.8452 42.6287 69.9444 42.98 70.001 43.3392L66.9116 44.227C66.8772 43.9721 66.8027 43.7243 66.6908 43.4926C66.5624 43.2266 66.3984 42.9792 66.2033 42.7573C65.9615 42.4907 65.6591 42.2862 65.3216 42.1609C64.9051 42.0008 64.4615 41.9228 64.0153 41.9314C63.4275 41.9099 62.8513 42.0977 62.3893 42.4614C62.1911 42.6073 62.0295 42.7972 61.9173 43.0161C61.8051 43.2351 61.7454 43.4771 61.7429 43.7231C61.7406 43.9176 61.7781 44.1105 61.8531 44.29C61.9281 44.4695 62.0391 44.6318 62.1792 44.7668C62.5007 45.0727 62.9078 45.2735 63.3464 45.3426L65.7247 45.8313C66.9658 46.0347 68.1138 46.6159 69.0116 47.4956C69.7617 48.2725 70.1727 49.3147 70.1545 50.3938C70.1544 51.0439 70.0278 51.6877 69.7819 52.2896C69.5269 52.9113 69.164 53.4832 68.7099 53.979C68.1948 54.5256 67.5634 54.9498 66.8623 55.2201C66.0472 55.5441 65.1762 55.7047 64.299 55.6926C63.313 55.7081 62.3331 55.5358 61.4116 55.1851C60.6506 54.9068 59.9624 54.4601 59.3987 53.8786C58.9477 53.4019 58.5701 52.8609 58.2782 52.2734C58.0348 51.7754 57.8798 51.239 57.8203 50.688Z" fill="#778CA0"/>
<path d="M70.1631 42.786V39.4914H70.9711C71.305 39.5154 71.6402 39.4669 71.9536 39.3493C72.267 39.2316 72.5511 39.0476 72.7865 38.8098C73.2122 38.3118 73.4321 37.6705 73.4015 37.0164V34.6365H76.7953V39.4914H80.0615V42.786H76.7953V50.1177C76.7699 50.3897 76.7994 50.6641 76.8821 50.9245C76.9647 51.185 77.0989 51.4262 77.2765 51.634C77.7046 51.9829 78.2524 52.1509 78.8028 52.1021C79.2372 52.103 79.6706 52.0604 80.0965 51.9748V55.0524C79.3563 55.315 78.5721 55.4319 77.7874 55.3967C77.1557 55.4315 76.5235 55.3389 75.9284 55.1244C75.3333 54.9099 74.7875 54.5781 74.3236 54.1485C73.8884 53.6909 73.5516 53.1491 73.334 52.5566C73.1165 51.9641 73.0227 51.3333 73.0586 50.7032V42.786H70.1631Z" fill="#778CA0"/>
<path d="M80.9915 50.9909C80.9644 50.3878 81.0674 49.7859 81.2934 49.226C81.5194 48.6661 81.8632 48.1612 82.3015 47.7456C83.2647 46.8952 84.4658 46.3603 85.7428 46.2131L89.783 45.5979C90.5611 45.4999 90.9502 45.1462 90.9502 44.537C90.958 44.2291 90.8951 43.9236 90.7662 43.6437C90.6373 43.3639 90.4459 43.1173 90.2068 42.9229C89.5599 42.4587 88.7701 42.2364 87.9756 42.2952C87.1452 42.2526 86.3308 42.5346 85.7051 43.0817C85.1409 43.6044 84.7936 44.3196 84.7319 45.0858L81.3202 44.3299C81.3912 43.5989 81.606 42.889 81.9521 42.2411C82.2983 41.5931 82.7692 41.0197 83.3376 40.5538C84.6228 39.488 86.2571 38.9348 87.9262 39.0006C88.9834 38.9813 90.0358 39.1461 91.0363 39.4876C91.8413 39.7561 92.5691 40.2158 93.157 40.8273C93.669 41.3801 94.0624 42.0316 94.3133 42.7418C94.5694 43.4857 94.6964 44.2679 94.6887 45.0545V52.6848C94.6756 53.5296 94.7441 54.3738 94.8934 55.2055H91.3488C91.1964 54.5495 91.136 53.8756 91.1692 53.2031C90.6968 53.935 90.0531 54.541 89.2937 54.9688C88.3839 55.4757 87.3534 55.7264 86.3121 55.6942C84.8965 55.7566 83.5134 55.2595 82.4622 54.3106C81.9945 53.8938 81.6212 53.382 81.3675 52.8095C81.1139 52.2369 80.9857 51.6169 80.9915 50.9909ZM84.7319 50.7218C84.7272 50.9909 84.7789 51.2579 84.8837 51.5058C84.9886 51.7537 85.1441 51.9769 85.3405 52.1611C85.5687 52.3657 85.8352 52.5232 86.1246 52.6244C86.414 52.7257 86.7206 52.7688 87.0267 52.7511C87.5354 52.7569 88.0419 52.685 88.5288 52.5377C88.9808 52.3969 89.4024 52.1724 89.7713 51.8759C90.1699 51.5418 90.4706 51.1061 90.6413 50.6151C90.8601 49.9951 90.9647 49.3408 90.9502 48.6836V47.9742L86.8479 48.602C86.2803 48.6755 85.7467 48.9133 85.3128 49.2862C85.118 49.4689 84.9651 49.6916 84.8648 49.939C84.7646 50.1864 84.7193 50.4525 84.7319 50.7191V50.7218Z" fill="#778CA0"/>
<path d="M97.2178 55.2076V39.4914H100.833V41.4499C101.28 40.6696 101.959 40.0476 102.776 39.6699C103.615 39.2529 104.539 39.0356 105.476 39.035C106.478 39.0168 107.467 39.2564 108.349 39.7308C109.182 40.1837 109.844 40.8955 110.234 41.7583C110.751 40.8805 111.501 40.1619 112.4 39.6815C113.299 39.2011 114.313 38.9774 115.331 39.035C116.024 39.0298 116.713 39.1498 117.363 39.3892C118.002 39.6286 118.589 39.9871 119.094 40.4455C119.65 40.9662 120.074 41.6118 120.33 42.3287C120.647 43.1863 120.801 44.0951 120.786 45.009V55.2076H117.267V45.5767C117.31 44.7245 117.042 43.8856 116.512 43.2164C116.225 42.9083 115.872 42.6685 115.48 42.5148C115.087 42.3612 114.665 42.2976 114.245 42.3287C113.803 42.3136 113.363 42.3959 112.956 42.5697C112.549 42.7436 112.186 43.0049 111.892 43.3348C111.282 44.0201 110.957 44.9129 110.986 45.8295V55.2076H107.246V45.5767C107.286 44.7285 107.021 43.894 106.498 43.2245C106.212 42.9125 105.858 42.6697 105.464 42.5143C105.07 42.3589 104.646 42.2952 104.224 42.3278C103.78 42.3096 103.339 42.3885 102.929 42.5589C102.52 42.7293 102.153 42.9871 101.854 43.3142C101.246 44.009 100.928 44.9101 100.964 45.8322V55.2102L97.2178 55.2076Z" fill="#778CA0"/>
<path d="M123.479 61.3419V39.4912H127.125V41.5968C127.585 40.8309 128.258 40.215 129.062 39.8239C130.008 39.3459 131.056 39.1073 132.115 39.129C133.119 39.0807 134.121 39.2619 135.045 39.6588C135.968 40.0556 136.789 40.6577 137.444 41.4192C138.786 43.088 139.475 45.1868 139.384 47.3251C139.469 49.4898 138.747 51.6091 137.357 53.2723C136.695 54.038 135.868 54.6451 134.939 55.0486C134.009 55.4522 133.001 55.6419 131.988 55.6037C130.997 55.6228 130.014 55.4148 129.115 54.9958C128.359 54.6536 127.705 54.1205 127.217 53.4489V61.3401L123.479 61.3419ZM127.188 47.3278C127.126 48.6349 127.546 49.9193 128.369 50.9372C128.74 51.3802 129.205 51.7338 129.732 51.9715C130.258 52.2091 130.832 52.3245 131.409 52.3092C131.988 52.3256 132.563 52.2115 133.092 51.9753C133.62 51.7392 134.088 51.3871 134.462 50.9452C135.288 49.9255 135.708 48.6377 135.643 47.3278C135.705 46.0394 135.287 44.7739 134.47 43.7749C134.093 43.3358 133.621 42.987 133.091 42.7542C132.561 42.5214 131.985 42.4105 131.406 42.4298C130.83 42.4139 130.257 42.5275 129.731 42.7623C129.205 42.9972 128.738 43.3473 128.366 43.7866C127.549 44.7801 127.129 46.0407 127.188 47.3251V47.3278Z" fill="#778CA0"/>
<path d="M139.658 50.688L142.909 49.8002C142.963 50.516 143.298 51.1815 143.84 51.652C144.476 52.1794 145.288 52.4472 146.114 52.4016C146.728 52.4364 147.338 52.2702 147.849 51.9282C148.042 51.8001 148.199 51.6268 148.309 51.4236C148.419 51.2203 148.477 50.9933 148.478 50.7624C148.479 50.571 148.437 50.3818 148.357 50.2082C148.276 50.0346 148.158 49.8809 148.011 49.7581C147.611 49.4414 147.132 49.2381 146.626 49.1698L144.292 48.6461C143.092 48.4253 141.994 47.8263 141.16 46.937C140.437 46.1299 140.045 45.0802 140.062 43.9975C140.062 43.3217 140.213 42.6543 140.503 42.0441C140.794 41.4339 141.218 40.8963 141.743 40.4706C142.881 39.483 144.348 38.9579 145.854 38.9991C146.62 38.9904 147.382 39.0959 148.117 39.312C148.707 39.4782 149.266 39.739 149.772 40.0841C150.189 40.3839 150.559 40.7445 150.869 41.1539C151.141 41.5036 151.368 41.8863 151.545 42.2928C151.684 42.6287 151.783 42.98 151.84 43.3392L148.751 44.227C148.717 43.9722 148.642 43.7243 148.531 43.4926C148.402 43.2267 148.237 42.9794 148.042 42.7573C147.8 42.4907 147.498 42.2862 147.161 42.1609C146.744 42.0007 146.3 41.9227 145.854 41.9314C145.267 41.9099 144.691 42.0978 144.229 42.4614C144.031 42.6071 143.869 42.797 143.757 43.016C143.644 43.2349 143.584 43.477 143.582 43.7231C143.58 43.9176 143.617 44.1105 143.692 44.29C143.767 44.4695 143.878 44.6318 144.018 44.7668C144.34 45.0725 144.747 45.2733 145.185 45.3426L147.563 45.8313C148.804 46.0345 149.953 46.6158 150.851 47.4956C151.6 48.2728 152.011 49.3149 151.993 50.3938C151.993 51.0439 151.866 51.6879 151.62 52.2896C151.365 52.9115 151.002 53.4835 150.548 53.979C150.033 54.5257 149.402 54.9498 148.7 55.2201C147.886 55.5441 147.015 55.7046 146.138 55.6926C145.152 55.7082 144.171 55.5359 143.25 55.1851C142.489 54.9066 141.801 54.4599 141.238 53.8786C140.787 53.4019 140.409 52.8609 140.117 52.2734C139.874 51.7753 139.719 51.2389 139.658 50.688Z" fill="#778CA0"/>
<path d="M30.658 39.2043C30.6743 39.1614 30.686 39.117 30.693 39.0716C30.8065 38.2651 31.222 37.5316 31.8557 37.019C32.3045 36.6617 32.8413 36.4315 33.4098 36.3527C33.4474 36.3471 33.4844 36.3378 33.5202 36.3249C33.6318 36.3134 33.7439 36.3077 33.856 36.3079C34.6302 36.3034 35.3792 36.5819 35.9619 37.091C36.5446 37.6002 36.9206 38.3047 37.019 39.0716C37.0295 39.1932 37.0857 39.3064 37.1763 39.3882C37.2669 39.4701 37.3852 39.5146 37.5074 39.5128H37.6233C37.7456 39.515 37.8641 39.4707 37.9548 39.3887C38.0456 39.3068 38.1016 39.1934 38.1117 39.0716C38.2058 38.3065 38.5777 37.6026 39.1569 37.0932C39.7361 36.5837 40.4823 36.3043 41.254 36.3079C42.0282 36.3034 42.7772 36.5819 43.3599 37.091C43.9426 37.6002 44.3186 38.3047 44.417 39.0716C44.4274 39.1932 44.4836 39.3064 44.5743 39.3882C44.6649 39.4701 44.7832 39.5146 44.9054 39.5128H44.9952C45.1175 39.515 45.2361 39.4707 45.3268 39.3887C45.4175 39.3068 45.4736 39.1934 45.4836 39.0716C45.5814 38.3081 45.9544 37.6064 46.5328 37.0977C47.1112 36.589 47.8553 36.3082 48.626 36.3079C49.4587 36.3078 50.2584 36.6335 50.8534 37.2154C51.4371 37.8109 51.7636 38.6113 51.7629 39.4447C51.763 40.2146 51.4819 40.9582 50.9723 41.536C50.4627 42.1138 49.7597 42.4861 48.995 42.5832C48.8731 42.5932 48.7595 42.6492 48.6775 42.7398C48.5954 42.8305 48.551 42.9489 48.5532 43.0711V43.1607C48.5514 43.2828 48.596 43.4009 48.678 43.4915C48.76 43.582 48.8732 43.6381 48.995 43.6485C49.7629 43.7464 50.4685 44.1217 50.9784 44.7036C51.4884 45.2854 51.7674 46.0336 51.7629 46.8068C51.7665 47.5778 51.4866 48.3232 50.9764 48.9017C50.4662 49.4803 49.7611 49.8516 48.995 49.9454C48.8731 49.9554 48.7595 50.0114 48.6775 50.102C48.5954 50.1926 48.551 50.3111 48.5532 50.4332V50.5498C48.5516 50.6718 48.5963 50.7899 48.6782 50.8803C48.7602 50.9708 48.8733 51.027 48.995 51.0376C49.7629 51.1355 50.4685 51.5108 50.9784 52.0927C51.4884 52.6745 51.7674 53.4226 51.7629 54.1959C51.7629 54.2999 51.7576 54.4022 51.7477 54.5035C51.7311 54.5464 51.719 54.5908 51.7118 54.6362C51.599 55.4428 51.1838 56.1765 50.55 56.6888C50.1008 57.0462 49.5637 57.2763 48.995 57.3551C48.9578 57.361 48.9212 57.37 48.8855 57.382C48.7736 57.3939 48.6612 57.3999 48.5488 57.3999C47.7747 57.4044 47.0258 57.1258 46.4432 56.6167C45.8607 56.1076 45.4849 55.4031 45.3867 54.6362C45.3762 54.5146 45.32 54.4015 45.2294 54.3196C45.1388 54.2377 45.0204 54.1932 44.8982 54.195H44.7815C44.6592 54.1928 44.5407 54.2372 44.4499 54.3191C44.3592 54.4011 44.3031 54.5144 44.2931 54.6362C44.1992 55.4013 43.8273 56.1055 43.2481 56.6149C42.6689 57.1244 41.9225 57.4037 41.1508 57.3999C40.3766 57.4045 39.6276 57.1259 39.0449 56.6168C38.4622 56.1076 38.0862 55.4032 37.9878 54.6362C37.9773 54.5146 37.9211 54.4015 37.8305 54.3196C37.7399 54.2377 37.6215 54.1932 37.4994 54.195H37.4096C37.2873 54.1928 37.1687 54.2372 37.078 54.3191C36.9873 54.4011 36.9312 54.5144 36.9211 54.6362C36.8237 55.3999 36.4508 56.1018 35.8724 56.6106C35.2939 57.1194 34.5496 57.4 33.7788 57.3999C32.9443 57.4011 32.1426 57.0752 31.5459 56.4924C30.9626 55.8967 30.6364 55.0964 30.6373 54.2632C30.6373 53.4933 30.9182 52.7499 31.4276 52.1721C31.937 51.5944 32.6398 51.2219 33.4044 51.1246C33.5265 51.1148 33.6402 51.0589 33.7225 50.9683C33.8047 50.8776 33.8493 50.7591 33.847 50.6368V50.5471C33.8486 50.425 33.8038 50.3068 33.7217 50.2163C33.6396 50.1258 33.5262 50.0697 33.4044 50.0593C32.6366 49.9612 31.9313 49.5858 31.4215 49.004C30.9118 48.4222 30.6328 47.6741 30.6373 46.901C30.6336 46.1301 30.9133 45.3847 31.4233 44.8062C31.9334 44.2276 32.6383 43.8562 33.4044 43.7624C33.5265 43.7526 33.6402 43.6967 33.7225 43.6061C33.8047 43.5155 33.8493 43.3969 33.847 43.2746V43.158C33.8486 43.0359 33.8038 42.9177 33.7217 42.8272C33.6396 42.7367 33.5262 42.6806 33.4044 42.6702C32.6366 42.5721 31.9313 42.1967 31.4215 41.6149C30.9118 41.0331 30.6328 40.285 30.6373 39.5119C30.6373 39.4079 30.6427 39.3057 30.6526 39.2043H30.658ZM33.4125 35.3278C33.3736 35.3177 33.334 35.3108 33.294 35.3071C32.2355 35.4545 31.2717 35.9954 30.5952 36.8217C30.0842 37.4297 29.7556 38.1695 29.6471 38.9559C29.6497 38.9901 29.6551 39.024 29.6632 39.0573C29.6495 39.1928 29.6426 39.329 29.6426 39.4653C29.6491 40.2214 29.8572 40.9621 30.2455 41.6112C30.6339 42.2602 31.1885 42.7942 31.8521 43.158C31.1883 43.522 30.6337 44.0561 30.2453 44.7053C29.857 45.3545 29.6489 46.0954 29.6426 46.8517C29.6491 47.6078 29.8572 48.3485 30.2455 48.9975C30.6339 49.6466 31.1885 50.1806 31.8521 50.5444C31.1844 50.9037 30.6265 51.4367 30.2375 52.087C29.8485 52.7372 29.6429 53.4805 29.6426 54.238C29.6426 54.3555 29.6479 54.4712 29.6569 54.5869C29.6441 54.6403 29.6399 54.6954 29.6444 54.7501C29.7677 55.6733 30.1932 56.5299 30.8546 57.1865C31.512 57.8471 32.3696 58.2721 33.294 58.3953C33.3491 58.3998 33.4045 58.3956 33.4583 58.3828C33.5732 58.3926 33.6899 58.3971 33.8075 58.3971C34.5658 58.3968 35.3099 58.1915 35.9609 57.803C36.6118 57.4144 37.1453 56.8571 37.5047 56.1902C37.8689 56.8532 38.4034 57.4072 39.0533 57.7951C39.7032 58.183 40.4449 58.3908 41.2019 58.3971C41.9591 58.391 42.701 58.1832 43.3511 57.7953C44.0011 57.4074 44.5358 56.8533 44.9 56.1902C45.2642 56.8532 45.7987 57.4072 46.4486 57.7951C47.0985 58.183 47.8402 58.3908 48.5972 58.3971C48.731 58.3971 48.8666 58.3908 48.9941 58.3783C49.0332 58.3885 49.0732 58.3951 49.1135 58.398C50.1702 58.2505 51.1322 57.7099 51.8069 56.8843C52.3182 56.2764 52.6472 55.5366 52.7559 54.7501C52.7532 54.7159 52.7478 54.6821 52.7398 54.6488C52.7532 54.5143 52.7595 54.3798 52.7595 54.2408C52.7532 53.4847 52.5453 52.744 52.157 52.095C51.7688 51.4459 51.2144 50.9119 50.5509 50.548C51.2145 50.184 51.769 49.6499 52.1573 49.0007C52.5455 48.3514 52.7534 47.6106 52.7595 46.8544C52.7532 46.0983 52.5453 45.3576 52.157 44.7086C51.7688 44.0595 51.2144 43.5255 50.5509 43.1616C51.2184 42.8022 51.7762 42.2692 52.165 41.6189C52.5538 40.9686 52.7592 40.2254 52.7595 39.468C52.7595 39.3505 52.755 39.2339 52.746 39.1191C52.758 39.0656 52.7622 39.0107 52.7586 38.9559C52.6356 38.0324 52.2097 37.1756 51.5475 36.5195C50.8907 35.8586 50.0332 35.4335 49.109 35.3107C49.0539 35.3062 48.9984 35.3104 48.9447 35.3233C48.8298 35.3134 48.713 35.3089 48.5954 35.3089C47.8371 35.3092 47.0931 35.5145 46.4421 35.9031C45.7912 36.2916 45.2577 36.8489 44.8982 37.5158C44.534 36.8527 43.9993 36.2986 43.3493 35.9107C42.6992 35.5228 41.9573 35.3151 41.2001 35.3089C40.4431 35.3152 39.7014 35.523 39.0515 35.9109C38.4016 36.2988 37.8671 36.8528 37.5029 37.5158C37.1387 36.8527 36.604 36.2986 35.954 35.9107C35.3039 35.5228 34.562 35.3151 33.8048 35.3089C33.6711 35.3089 33.5355 35.3152 33.408 35.3278H33.4125Z" fill="#778CA0"/>
<path d="M49.1381 59.1854L49.0555 59.1791C49.0214 59.1791 48.9864 59.1719 48.9523 59.1675C48.8356 59.1755 48.7171 59.18 48.5994 59.18C47.6886 59.1787 46.7959 58.9257 46.02 58.4492C45.6069 58.1967 45.2318 57.8869 44.9058 57.5291C44.4366 58.045 43.8654 58.4581 43.2283 58.7422C42.5911 59.0264 41.9019 59.1754 41.2041 59.18C40.2933 59.1787 39.4006 58.9257 38.6247 58.4492C38.2129 58.1971 37.8387 57.8883 37.5132 57.5318C37.1904 57.889 36.8179 58.1979 36.4071 58.4492C35.6253 58.9271 34.7264 59.18 33.8097 59.18C33.7056 59.18 33.6006 59.18 33.4964 59.1702C33.41 59.1809 33.3228 59.1827 33.236 59.1755H33.2136H33.1912C32.6402 59.1017 32.1053 58.9372 31.6083 58.6886C31.1252 58.4463 30.6847 58.1275 30.3038 57.7444C29.9202 57.3642 29.6012 56.9241 29.3593 56.4414C29.1096 55.9452 28.9445 55.4109 28.8709 54.8605V54.838V54.8156C28.8646 54.7289 28.8664 54.6419 28.8763 54.5556C28.87 54.4516 28.8673 54.3466 28.8673 54.2435C28.8669 53.328 29.1198 52.4302 29.5981 51.6492C29.8494 51.2382 30.1591 50.8658 30.5174 50.5436C30.1598 50.2189 29.8503 49.8451 29.5981 49.4334C29.1213 48.6584 28.8683 47.7668 28.8673 46.8571C28.8718 46.1603 29.0209 45.4719 29.3053 44.8355C29.5896 44.1992 30.003 43.6286 30.5192 43.1599C30.161 42.8343 29.8509 42.4597 29.5981 42.047C29.1213 41.272 28.8683 40.3804 28.8673 39.4707C28.8673 39.3461 28.8718 39.2205 28.8816 39.0959C28.878 39.0708 28.8753 39.0457 28.8735 39.0206L28.8673 38.9381L28.878 38.8555C29.0061 37.9245 29.3948 37.0486 29.9994 36.3286C30.7992 35.3487 31.9409 34.7079 33.1947 34.5351L33.2773 34.5234L33.3608 34.5297C33.395 34.5297 33.4291 34.5369 33.4632 34.5414C33.5808 34.5333 33.6993 34.5288 33.816 34.5288C34.7271 34.5304 35.6201 34.7833 36.3963 35.2597C36.8091 35.5122 37.184 35.822 37.5096 36.1797C37.9788 35.6639 38.55 35.2508 39.1872 34.9666C39.8243 34.6825 40.5136 34.5334 41.2113 34.5288C42.1224 34.5304 43.0154 34.7833 43.7916 35.2597C44.2035 35.5118 44.5776 35.8206 44.9031 36.177C45.2259 35.8199 45.5984 35.511 46.0092 35.2597C46.7911 34.7817 47.6899 34.5287 48.6066 34.5288C48.7108 34.5288 48.8158 34.5288 48.9191 34.5387C49.0057 34.5279 49.0933 34.5261 49.1803 34.5333H49.2019H49.2243C49.7753 34.607 50.3102 34.7715 50.8072 35.0202C51.2907 35.2622 51.7316 35.5811 52.1126 35.9645C52.4966 36.3443 52.8157 36.7845 53.0571 37.2674C53.3061 37.7638 53.4709 38.2981 53.5446 38.8484V38.8708V38.8932C53.551 38.9799 53.549 39.067 53.5383 39.1533C53.5446 39.2573 53.5482 39.3613 53.5482 39.4653C53.5483 40.3809 53.2951 41.2787 52.8165 42.0596C52.5655 42.4706 52.2561 42.843 51.898 43.1652C52.2556 43.4897 52.5648 43.8636 52.8165 44.2754C53.2936 45.0503 53.5469 45.942 53.5482 46.8517C53.5437 47.5487 53.3945 48.2371 53.11 48.8735C52.8255 49.5099 52.4119 50.0804 51.8953 50.549C52.2536 50.8741 52.5637 51.2485 52.8165 51.6609C53.2934 52.4362 53.5466 53.3281 53.5482 54.2381C53.5482 54.3628 53.5437 54.4883 53.5338 54.6121C53.5338 54.6372 53.5401 54.6632 53.5419 54.6883L53.5482 54.7708L53.5365 54.8533C53.4089 55.7842 53.0205 56.6602 52.4161 57.3803C51.6161 58.3603 50.474 59.0012 49.2198 59.1737L49.1381 59.1854ZM46.1682 54.5439C46.243 55.121 46.527 55.6506 46.9664 56.0326C47.4058 56.4147 47.9702 56.6226 48.5528 56.6171C48.6165 56.6171 48.6794 56.6172 48.7422 56.61C48.7844 56.5992 48.8266 56.5902 48.8697 56.5831H48.893C49.32 56.5233 49.7231 56.3502 50.0602 56.0818C50.5388 55.6955 50.8524 55.1418 50.9374 54.5331V54.5107C50.9462 54.4575 50.9579 54.4048 50.9724 54.3529C50.9724 54.3018 50.9778 54.2498 50.9778 54.1987C50.983 53.6166 50.7747 53.0528 50.3921 52.6138C50.0094 52.1748 49.479 51.891 48.9011 51.816C48.5889 51.7835 48.3 51.6362 48.0905 51.4026C47.8811 51.1691 47.7662 50.8661 47.7681 50.5525V50.436C47.7656 50.129 47.8757 49.8318 48.0777 49.6005C48.2797 49.3692 48.5595 49.2198 48.8643 49.1805H48.8868H48.9101C49.4827 49.1059 50.0084 48.8251 50.3886 48.3909C50.7688 47.9568 50.9773 47.3989 50.9751 46.8221C50.9804 46.2401 50.772 45.6763 50.3894 45.2373C50.0067 44.7983 49.4763 44.5145 48.8984 44.4395C48.5862 44.407 48.2973 44.2596 48.0879 44.0261C47.8784 43.7926 47.7635 43.4896 47.7654 43.176V43.0864C47.7629 42.7794 47.873 42.4822 48.075 42.2509C48.277 42.0195 48.5568 41.8702 48.8616 41.8309H48.884H48.9074C49.4775 41.7505 49.9998 41.4681 50.3789 41.0351C50.7579 40.6022 50.9686 40.0476 50.9724 39.4725C50.9738 38.8463 50.7299 38.2445 50.2927 37.7956C49.8434 37.3588 49.2408 37.1152 48.6138 37.1168C48.0363 37.1146 47.4778 37.3228 47.0431 37.7025C46.6084 38.0822 46.3273 38.6073 46.2525 39.1793V39.2026V39.225C46.2133 39.5294 46.0637 39.8089 45.8321 40.0107C45.6005 40.2124 45.3029 40.3225 44.9956 40.3199H44.9058C44.5918 40.3219 44.2883 40.2071 44.0544 39.9979C43.8204 39.7888 43.6727 39.5002 43.6399 39.1882C43.5649 38.611 43.2807 38.0813 42.8412 37.6991C42.4016 37.3169 41.8372 37.1088 41.2544 37.1141C40.6769 37.1119 40.1185 37.3201 39.6837 37.6999C39.249 38.0796 38.9679 38.6046 38.8932 39.1766V39.1999V39.2223C38.8539 39.5267 38.7043 39.8062 38.4727 40.008C38.2411 40.2097 37.9435 40.3197 37.6362 40.3172H37.5204C37.2064 40.3192 36.9029 40.2044 36.669 39.9952C36.435 39.7861 36.2872 39.4975 36.2545 39.1856C36.1794 38.6083 35.8953 38.0786 35.4558 37.6964C35.0162 37.3143 34.4517 37.1061 33.869 37.1114C33.8061 37.1114 33.7424 37.1114 33.6795 37.1195C33.6382 37.1303 33.5952 37.1392 33.5521 37.1464H33.5287C33.1017 37.2059 32.6985 37.379 32.3616 37.6477C31.8824 38.0335 31.5687 38.5874 31.4844 39.1963V39.2187C31.4756 39.2719 31.4639 39.3246 31.4494 39.3766C31.4494 39.4277 31.4449 39.4797 31.4449 39.5308C31.4396 40.1127 31.6478 40.6764 32.0303 41.1154C32.4127 41.5544 32.9429 41.8383 33.5206 41.9134C33.8328 41.9459 34.1218 42.0933 34.3312 42.3268C34.5407 42.5604 34.6556 42.8634 34.6537 43.1769V43.2935C34.6562 43.6003 34.5462 43.8974 34.3444 44.1287C34.1426 44.36 33.863 44.5095 33.5584 44.5489H33.535H33.5117C32.9389 44.6234 32.4131 44.9041 32.0329 45.3383C31.6527 45.7726 31.4443 46.3305 31.4467 46.9073C31.4412 47.4892 31.6494 48.0528 32.0319 48.4917C32.4144 48.9306 32.9447 49.2143 33.5224 49.289C33.8347 49.322 34.1235 49.4696 34.3329 49.7032C34.5422 49.9369 34.6572 50.2399 34.6555 50.5534V50.6431C34.658 50.9499 34.548 51.247 34.3462 51.4783C34.1444 51.7096 33.8648 51.8591 33.5601 51.8985H33.5368H33.5135C32.9433 51.979 32.4211 52.2614 32.042 52.6943C31.6629 53.1273 31.4523 53.6818 31.4485 54.257C31.4469 54.8829 31.6909 55.4845 32.1281 55.9329C32.5772 56.3701 33.18 56.6138 33.807 56.6118C34.3828 56.6078 34.9379 56.3973 35.3714 56.0187C35.8048 55.6402 36.0876 55.1187 36.1683 54.5493V54.526L36.1728 54.5026C36.2123 54.1984 36.3619 53.9191 36.5935 53.7175C36.8251 53.516 37.1226 53.4061 37.4297 53.4086H37.5195C37.8335 53.4067 38.137 53.5215 38.371 53.7307C38.6049 53.9398 38.7527 54.2284 38.7854 54.5403C38.8605 55.1174 39.1447 55.6471 39.5842 56.0291C40.0238 56.4112 40.5883 56.6191 41.1709 56.6136C41.7485 56.616 42.3071 56.4078 42.7418 56.028C43.1766 55.6483 43.4576 55.1231 43.5322 54.5511V54.5278L43.5367 54.5054C43.5759 54.2009 43.7255 53.9214 43.9571 53.7197C44.1887 53.5179 44.4863 53.4079 44.7936 53.4104H44.9103C45.2232 53.4106 45.5249 53.5265 45.7573 53.7358C45.9896 53.9452 46.136 54.2331 46.1682 54.5439Z" fill="#778CA0"/>
<path d="M41.2152 49.9125C40.6481 49.9141 40.0863 49.8034 39.5623 49.5866C39.0383 49.3699 38.5626 49.0515 38.1627 48.6499C37.7606 48.2504 37.4418 47.7753 37.2249 47.2519C37.0079 46.7286 36.897 46.1674 36.8985 45.601C36.8985 45.3471 36.9994 45.1037 37.1791 44.9241C37.3587 44.7445 37.6024 44.6435 37.8565 44.6433C38.1107 44.6435 38.3543 44.7445 38.534 44.9241C38.7136 45.1037 38.8145 45.3471 38.8145 45.601C38.8154 46.2366 39.0687 46.8458 39.5187 47.2952C39.9688 47.7445 40.5789 47.9973 41.2152 47.998C41.8516 47.9973 42.4617 47.7445 42.9117 47.2952C43.3618 46.8458 43.615 46.2366 43.616 45.601C43.6159 45.4753 43.6406 45.3508 43.6886 45.2346C43.7367 45.1184 43.8073 45.0128 43.8962 44.9238C43.9852 44.8349 44.0909 44.7643 44.2071 44.7162C44.3234 44.6681 44.4481 44.6433 44.574 44.6433C44.8281 44.6435 45.0718 44.7445 45.2514 44.9241C45.431 45.1037 45.5319 45.3471 45.5319 45.601C45.5335 46.1674 45.4225 46.7285 45.2055 47.2519C44.9886 47.7752 44.6698 48.2504 44.2678 48.6499C43.8678 49.0515 43.3921 49.3698 42.8681 49.5866C42.3441 49.8033 41.7824 49.9141 41.2152 49.9125Z" fill="#778CA0"/>
</svg>
