<svg width="180" height="96" viewBox="0 0 180 96" fill="none" xmlns="http://www.w3.org/2000/svg">
<path d="M35.0344 56.7207C39.1559 56.7207 42.7088 54.6174 42.7088 50.9224C42.7088 42.7364 31.2257 46.6588 31.2257 40.5478C31.2257 38.9277 32.2774 37.6202 34.4376 37.6202C38.5874 37.6202 37.5357 42.6796 40.6054 42.6796C41.8276 42.6796 42.4246 41.9974 42.4246 40.9173C42.453 38.5582 39.298 36 34.5228 36C29.8329 36 26.9906 38.5013 26.9906 41.9121C27.019 50.3254 38.5021 46.1757 38.5021 52.2298C38.5021 53.9637 37.1946 55.1006 35.205 55.1006C30.4014 55.1006 31.1688 49.9275 28.3265 49.8707C27.1612 49.8707 26.6211 50.6097 26.6211 51.6045C26.6211 53.8784 29.634 56.7207 35.0344 56.7207ZM57.0376 53.5373V43.1343C57.0376 42.6512 56.6965 42.5375 55.9575 42.6227L52.3193 43.1627C51.9782 43.2196 51.7508 43.4754 51.7508 43.7597V43.8449C51.7508 44.4703 52.8878 44.7544 52.8878 46.0051V51.775C52.8878 53.7931 51.8076 55.1006 50.4433 55.1006C48.8801 55.1006 48.0842 53.8784 48.0842 51.235L48.1694 43.1343C48.1694 42.6512 47.7431 42.5375 47.0041 42.6227L43.4227 43.1627C43.0532 43.2196 42.8258 43.4754 42.8258 43.7597V43.8449C42.8258 44.4703 43.9344 44.7544 43.9344 46.0051V50.8087C43.9344 54.7027 46.2935 56.7207 49.2212 56.7207C51.1824 56.7207 52.5751 56.0102 53.3425 54.7596C53.4278 56.1523 54.2521 56.6071 55.8722 56.6071C57.4639 56.6071 58.4019 56.4365 58.4019 55.7828C58.4019 54.7311 57.0376 55.7828 57.0376 53.5373ZM70.9639 42.7933C68.0648 42.7933 67.1267 42.509 65.3076 42.509C61.3283 42.509 58.5713 44.925 58.5713 48.4779C58.5713 51.7182 61.4136 54.1058 65.2224 54.1058C65.5919 54.1058 65.9614 54.0774 66.3309 54.0489C67.4394 54.2763 68.0932 55.2427 68.0932 56.6639C68.0932 58.2557 66.9846 59.3357 65.2224 59.3357C61.8968 59.2789 62.5222 55.0153 60.1914 55.0153C59.0261 55.0153 58.5144 55.8112 58.5144 56.6071C58.5144 58.8241 60.9589 60.5295 65.1371 60.5295C69.1732 60.5295 72.2714 58.9662 72.2714 56.5502C72.2714 55.0437 71.3903 53.8784 68.8606 53.3099C70.8218 52.372 72.044 50.6097 72.044 48.3642C72.044 46.9999 71.3619 45.664 70.4523 44.726C71.3334 44.4703 72.4135 44.5839 72.6125 43.6459C72.783 43.1343 72.4988 42.7933 70.9639 42.7933ZM62.579 46.602C62.579 44.8681 63.3748 43.7597 64.6824 43.7597C66.6719 43.7597 68.0079 47.2557 68.0079 49.9844C68.0079 51.6613 67.212 52.8268 65.8477 52.8268C64.057 52.8268 62.579 49.6149 62.579 46.602ZM85.911 53.5941L85.2858 48.3358C84.8878 44.7544 82.3865 42.509 78.6916 42.509C75.7355 42.509 73.2342 43.7028 73.2342 45.7493C73.2342 46.7157 73.9163 47.341 74.9396 47.341C77.0713 47.341 76.4177 43.7028 78.6916 43.7028C80.4254 43.7028 80.8801 45.2945 81.2212 48.62L81.2496 48.9611C80.5107 48.4495 79.4589 48.1084 78.1515 48.1084C75.3659 48.1084 72.9784 49.5865 73.0068 52.4288C73.0068 55.2711 75.2808 56.7207 78.3505 56.7207C80.3117 56.7207 81.5055 56.0102 82.1308 55.0721C82.3013 56.2944 83.0403 56.6071 84.6604 56.6071C86.0247 56.6071 87.3892 56.4365 87.3892 55.7828C87.3892 55.0153 86.1384 55.5554 85.911 53.5941ZM79.6011 55.4701C78.1515 55.4701 77.2135 53.7363 77.2135 51.775C77.2135 50.3254 78.0946 49.3875 79.2884 49.3875C80.4538 49.3875 81.3633 50.2402 81.5339 51.9172L81.6192 52.912C81.7044 54.1911 80.9085 55.4701 79.6011 55.4701ZM95.8347 42.509C93.9303 42.509 92.5944 43.5038 91.9691 45.3229V43.1911C91.9691 42.6512 91.7132 42.3101 91.0596 42.6227L87.6487 44.2144C87.2792 44.385 87.0518 44.6123 87.0518 44.8966V45.0103C87.0518 45.7209 88.3593 45.8062 88.3593 47.0568V53.7078C88.3593 54.9017 87.2508 55.129 87.2508 55.8396V55.9533C87.2508 56.266 87.5066 56.4365 87.9045 56.4365H93.1628C93.5324 56.4365 93.7882 56.266 93.7882 55.9533V55.8396C93.7882 55.129 92.367 54.9017 92.367 53.7078V48.0232C92.367 46.4598 92.765 44.8966 93.8734 44.8966C95.4083 44.8966 94.4135 47.341 96.6305 47.341C97.9949 47.341 98.4496 46.2894 98.4496 45.0955C98.4496 43.6459 97.5117 42.509 95.8347 42.509ZM105.069 56.7207C108.764 56.7207 110.697 54.4185 110.867 52.0877C110.924 51.4625 110.213 51.3488 109.873 51.8035C109.276 52.8268 108.195 53.7931 106.462 53.7931C103.562 53.7931 101.629 51.3203 101.629 47.54C101.629 45.4366 102.653 43.7597 104.273 43.7597C106.746 43.7312 106.575 47.7674 109.02 47.9095C110.327 47.9664 110.782 47.2273 110.782 46.4883C110.782 44.2713 108.167 42.4806 104.898 42.509C101.061 42.5375 97.7355 45.2092 97.7355 49.5865C97.7355 53.4236 100.777 56.7207 105.069 56.7207ZM124.109 53.5941L123.484 48.3358C123.085 44.7544 120.584 42.509 116.889 42.509C113.933 42.509 111.432 43.7028 111.432 45.7493C111.432 46.7157 112.114 47.341 113.137 47.341C115.269 47.341 114.615 43.7028 116.889 43.7028C118.623 43.7028 119.077 45.2945 119.418 48.62L119.447 48.9611C118.708 48.4495 117.656 48.1084 116.349 48.1084C113.563 48.1084 111.176 49.5865 111.204 52.4288C111.204 55.2711 113.478 56.7207 116.548 56.7207C118.509 56.7207 119.702 56.0102 120.328 55.0721C120.498 56.2944 121.238 56.6071 122.857 56.6071C124.222 56.6071 125.587 56.4365 125.587 55.7828C125.587 55.0153 124.336 55.5554 124.109 53.5941ZM117.799 55.4701C116.349 55.4701 115.411 53.7363 115.411 51.775C115.411 50.3254 116.292 49.3875 117.486 49.3875C118.651 49.3875 119.561 50.2402 119.732 51.9172L119.817 52.912C119.902 54.1911 119.106 55.4701 117.799 55.4701ZM140.115 53.6794L139.774 48.5632C139.433 44.0439 136.931 42.509 134.345 42.509C132.412 42.509 130.905 43.3617 130.138 44.8113V43.2196C130.138 42.6796 129.826 42.2816 129.171 42.6227L125.79 44.2713C125.448 44.4418 125.221 44.5839 125.221 44.8681V44.9818C125.221 45.6925 126.613 45.8062 126.613 47.0852V53.7078C126.613 54.9301 125.391 55.1574 125.391 55.868V55.9817C125.391 56.266 125.647 56.465 126.045 56.465H131.332C131.73 56.465 131.986 56.266 131.986 55.9817V55.868C131.986 55.1574 130.764 54.9301 130.764 53.7078V47.2557C130.764 45.4082 131.645 44.1292 133.179 44.1292C134.686 44.1292 135.511 45.3798 135.652 48.4211L135.937 53.6794C135.993 54.9301 134.913 55.1574 134.913 55.868V55.9817C134.913 56.266 135.169 56.465 135.567 56.465H140.485C140.882 56.465 141.138 56.266 141.138 55.9817V55.868C141.138 55.1574 140.2 54.9301 140.115 53.6794ZM152.864 52.1161C152.324 52.9973 151.13 53.7647 149.624 53.7647C147.919 53.7647 146.612 52.8552 145.872 51.2919L152.182 48.4211C152.95 48.08 153.433 47.5116 153.433 46.5451C153.433 44.6692 151.785 42.509 148.061 42.509C144.338 42.509 141.183 45.3798 141.183 49.5012C141.183 53.8784 144.11 56.7207 148.061 56.7207C151.727 56.7207 153.66 54.0774 153.831 52.4288C153.86 51.8319 153.205 51.6898 152.864 52.1161ZM147.549 43.7597C149.084 43.7597 149.823 45.7777 149.823 46.8009C149.823 47.3979 149.596 47.8811 149.084 48.1368L145.417 49.9844C145.219 49.2454 145.133 48.4211 145.133 47.54C145.133 45.3798 146.043 43.7597 147.549 43.7597Z" fill="#778CA0"/>
</svg>
