<svg width="149" height="22" viewBox="0 0 149 22" fill="none" xmlns="http://www.w3.org/2000/svg">
<path d="M5.81114 20.7776C5.94234 20.7776 6.02674 20.6558 6.06414 20.4122C6.12044 20.1686 6.03604 19.7281 5.81114 19.091C5.73624 18.8474 5.56754 18.4163 5.30514 17.7978C5.06154 17.1794 4.77104 16.4672 4.43374 15.6614C4.09644 14.8556 3.74974 14.0404 3.39364 13.2157C3.05634 12.3911 2.74704 11.6321 2.46594 10.9387C2.18484 10.2453 1.96934 9.7206 1.81944 9.3645C1.57574 8.7273 1.31344 8.2776 1.03234 8.0152C0.769943 7.7528 0.554442 7.6216 0.385742 7.6216H6.12044C6.00794 7.6216 5.93304 7.7528 5.89554 8.0152C5.85804 8.2776 5.93304 8.7273 6.12044 9.3645C6.21414 9.7018 6.36404 10.1985 6.57014 10.8544C6.79504 11.5103 7.03874 12.2505 7.30104 13.0752C7.58214 13.8998 7.86334 14.7431 8.14444 15.6052C8.44424 16.4672 8.71604 17.2637 8.95964 17.9946H8.98774C9.19394 17.245 9.41874 16.4391 9.66244 15.5771C9.90604 14.6962 10.1403 13.8436 10.3651 13.019C10.59 12.1756 10.7868 11.426 10.9555 10.7701C11.1429 10.1141 11.2741 9.6269 11.349 9.3083C11.5177 8.6711 11.5833 8.2307 11.5458 7.9871C11.5083 7.7434 11.4427 7.6216 11.349 7.6216H17.5897C17.4773 7.6216 17.4023 7.7528 17.3648 8.0152C17.3273 8.2776 17.4023 8.7273 17.5897 9.3645C17.6834 9.7018 17.824 10.1985 18.0114 10.8544C18.1987 11.5103 18.4049 12.2505 18.6298 13.0752C18.8547 13.8998 19.089 14.7431 19.3326 15.6052C19.5762 16.4672 19.7918 17.2637 19.9791 17.9946H20.0073C20.2884 17.245 20.5789 16.4391 20.8787 15.5771C21.1973 14.6962 21.5066 13.8436 21.8064 13.019C22.1062 12.1756 22.3686 11.426 22.5935 10.7701C22.8184 10.1141 22.9683 9.6269 23.0433 9.3083C23.2119 8.7086 23.2776 8.2776 23.24 8.0152C23.2025 7.7528 23.137 7.6216 23.0433 7.6216H28.6374C28.5062 7.6216 28.3187 7.7434 28.0751 7.9871C27.8316 8.2307 27.5786 8.6617 27.3161 9.2802C27.185 9.6175 26.9694 10.1141 26.6696 10.7701C26.3698 11.426 26.0417 12.1569 25.6857 12.9627C25.3297 13.7685 24.9735 14.5745 24.6175 15.3803C24.2614 16.1861 23.9428 16.917 23.6617 17.573C23.3993 18.2289 23.2119 18.7349 23.0995 19.091C22.9121 19.6907 22.8371 20.1217 22.8746 20.3841C22.9121 20.6465 22.987 20.7776 23.0995 20.7776H16.8307C16.9431 20.7776 17.0181 20.6465 17.0556 20.3841C17.0931 20.1217 17.0181 19.6907 16.8307 19.091C16.7745 18.9223 16.662 18.5381 16.4934 17.9384C16.3434 17.3387 16.156 16.6172 15.9311 15.7738C15.7063 14.9118 15.472 14.0215 15.2284 13.1033C14.9848 12.185 14.7505 11.3136 14.5256 10.489H14.4413C14.2164 11.2761 13.9821 12.1194 13.7385 13.019C13.4949 13.8998 13.2606 14.7618 13.0357 15.6052C12.8108 16.4298 12.6046 17.1607 12.4173 17.7978C12.2486 18.4163 12.1361 18.8474 12.0799 19.091C11.9113 19.7094 11.8456 20.1498 11.8831 20.4122C11.9207 20.6558 11.9862 20.7776 12.0799 20.7776H5.81114ZM34.8802 21.0587C32.9125 21.0587 31.3663 20.787 30.2419 20.2435C29.1362 19.7 28.3585 18.9223 27.9087 17.9103C27.4589 16.8796 27.234 15.652 27.234 14.2277C27.234 12.11 27.8243 10.4327 29.005 9.1958C30.1857 7.959 31.9942 7.3405 34.4305 7.3405C35.8547 7.3405 37.0073 7.5373 37.8881 7.9308C38.7877 8.3244 39.4718 8.8491 39.9402 9.5051C40.4087 10.161 40.7273 10.8919 40.896 11.6977C41.0834 12.4848 41.1771 13.2814 41.1771 14.0872V15.4084C41.1771 15.3522 40.9147 15.296 40.39 15.2397C39.884 15.1648 39.022 15.1273 37.8038 15.1273H31.282C31.282 16.158 31.5912 16.9358 32.2097 17.4605C32.8468 17.9665 33.8776 18.2195 35.3019 18.2195C36.5013 18.2195 37.5695 18.079 38.5066 17.7978C39.4623 17.498 40.1557 17.2169 40.5868 16.9545V17.7978L40.8679 19.9343C40.5119 20.1779 39.8278 20.4309 38.8158 20.6933C37.8038 20.9369 36.492 21.0587 34.8802 21.0587ZM32.3221 12.7097H37.1853C37.1853 12.2975 37.0916 11.8945 36.9042 11.501C36.7356 11.1074 36.4545 10.7888 36.0609 10.5452C35.6673 10.2828 35.1238 10.1516 34.4305 10.1516C33.3998 10.1516 32.6595 10.3671 32.2097 10.7982C31.7599 11.2292 31.535 11.679 31.535 12.1475C31.535 12.3349 31.5912 12.4754 31.7037 12.5692C31.8161 12.6629 32.0223 12.7097 32.3221 12.7097ZM47.9633 21.0587C46.6702 21.0587 45.7332 20.787 45.1522 20.2435C44.5712 19.6813 44.2807 18.7723 44.2807 17.5167V10.4327H41.7507V7.6216C42.6129 7.6216 43.2875 7.5186 43.7747 7.3124C44.262 7.0875 44.6088 6.7033 44.8148 6.1598C45.021 5.6164 45.124 4.8574 45.124 3.8828H48.2725V7.6216H53.0795C52.9483 7.9964 52.8172 8.465 52.6859 9.0272C52.5735 9.5707 52.5173 10.0392 52.5173 10.4327H48.2725V15.9706C48.2725 16.8327 48.3381 17.423 48.4693 17.7416C48.6005 18.0603 48.9098 18.2195 49.3969 18.2195C49.7156 18.2195 50.0623 18.1071 50.437 17.8822C50.8306 17.6573 51.2055 17.3856 51.5615 17.067C51.9363 16.7296 52.2456 16.411 52.4892 16.1112V16.9826L52.7703 19.7094C52.4329 20.0092 51.8426 20.3091 50.9993 20.609C50.1559 20.9088 49.1439 21.0587 47.9633 21.0587ZM53.4623 20.7776C53.5936 20.7776 53.7153 20.6465 53.8277 20.3841C53.959 20.1217 54.0245 19.6907 54.0245 19.091V9.5894C54.0245 8.9897 53.959 8.568 53.8277 8.3244C53.7153 8.062 53.5936 7.9215 53.4623 7.9027C54.2869 7.9027 55.1303 7.8465 55.9923 7.7341C56.8544 7.6029 57.5291 7.4717 58.0163 7.3405V8.465L57.9601 8.9428L58.0163 8.9991C58.1476 8.7929 58.3536 8.568 58.6347 8.3244C58.9347 8.062 59.3094 7.8371 59.7592 7.6497C60.2278 7.4436 60.7712 7.3405 61.3896 7.3405C62.308 7.3405 63.1232 7.4717 63.8353 7.7341C64.5475 7.9777 65.0536 8.2307 65.3533 8.4931L64.51 12.26V13.1033C64.2288 12.7097 63.8447 12.3068 63.3574 11.8945C62.8889 11.4822 62.3642 11.1355 61.7832 10.8544C61.221 10.5733 60.64 10.4327 60.0403 10.4327C59.3656 10.4327 58.8596 10.6764 58.5223 11.1636C58.185 11.6509 58.0163 12.4192 58.0163 13.4687V19.091C58.0163 19.6907 58.0725 20.1217 58.185 20.3841C58.3162 20.6465 58.4474 20.7776 58.5785 20.7776H53.4623ZM70.611 21.0587C68.9244 21.0587 67.575 20.7308 66.563 20.0748C65.5697 19.4002 65.0732 18.3225 65.0732 16.8421C65.0732 15.8114 65.3354 14.9773 65.8603 14.3402C66.385 13.703 67.0972 13.2344 67.9967 12.9346C68.915 12.616 69.9551 12.4567 71.117 12.4567C72.4102 12.4567 73.4222 12.6067 74.153 12.9065C74.8839 13.2063 75.343 13.4125 75.5305 13.525C75.5305 12.363 75.3243 11.5103 74.912 10.9668C74.4997 10.4234 73.7033 10.1516 72.5226 10.1516C71.3793 10.1516 70.3673 10.2641 69.4866 10.489C68.6057 10.7138 67.8843 10.9762 67.322 11.2761C66.7785 11.5759 66.4037 11.8289 66.1976 12.0351V11.1917L65.9165 8.4368C66.0476 8.3619 66.3944 8.2401 66.9566 8.0714C67.5188 7.9027 68.2871 7.7434 69.2617 7.5935C70.2362 7.4248 71.3982 7.3405 72.7475 7.3405C74.6028 7.3405 76.0177 7.6122 76.9923 8.1557C77.9668 8.6805 78.632 9.4395 78.9882 10.4327C79.3629 11.426 79.5504 12.6254 79.5504 14.031V19.091C79.5504 19.6157 79.6067 19.9999 79.719 20.2435C79.8503 20.4684 79.9813 20.6465 80.1126 20.7776H75.5586V20.1873L75.6148 19.6532L75.5586 19.597C75.2588 19.9156 74.6872 20.2435 73.8438 20.5808C73.0192 20.8995 71.9416 21.0587 70.611 21.0587ZM71.9323 18.2195C73.0941 18.2195 73.9844 18.0884 74.6028 17.826C75.24 17.5448 75.5586 17.1888 75.5586 16.7577C75.5586 16.3267 75.2306 15.9706 74.5747 15.6895C73.9374 15.4084 73.066 15.2678 71.9604 15.2678C70.8922 15.2678 70.1332 15.4178 69.6834 15.7176C69.2523 16.0174 69.0368 16.3923 69.0368 16.8421C69.0368 17.4043 69.2898 17.7791 69.7958 17.9665C70.3018 18.1352 71.0139 18.2195 71.9323 18.2195ZM81.3011 20.7776C81.4324 20.7776 81.5541 20.6465 81.6665 20.3841C81.7978 20.1217 81.8633 19.6907 81.8633 19.091V9.5894C81.8633 8.9897 81.7978 8.568 81.6665 8.3244C81.5541 8.062 81.4324 7.9215 81.3011 7.9027C82.1257 7.9027 82.9691 7.8465 83.8311 7.7341C84.6932 7.6029 85.3682 7.4717 85.8552 7.3405V9.0553L85.7992 9.4207L85.8552 9.477C85.9112 9.3458 86.0892 9.1115 86.3892 8.7742C86.6892 8.4368 87.1202 8.1182 87.6822 7.8184C88.2442 7.4998 88.9382 7.3405 89.7622 7.3405C91.5052 7.3405 92.8362 7.8371 93.7542 8.8304C94.6912 9.8237 95.1602 11.3791 95.1602 13.4968V19.091C95.1602 19.6907 95.2162 20.1217 95.3282 20.3841C95.4603 20.6465 95.5912 20.7776 95.7222 20.7776H90.6062C90.7372 20.7776 90.8592 20.6465 90.9712 20.3841C91.1022 20.1217 91.1682 19.6907 91.1682 19.091V13.5812C91.1682 12.2505 90.9622 11.351 90.5492 10.8825C90.1372 10.3952 89.6122 10.1516 88.9752 10.1516C88.1692 10.1516 87.4482 10.4421 86.8112 11.0231C86.1742 11.5853 85.8552 12.5224 85.8552 13.8342V19.091C85.8552 19.6907 85.9112 20.1217 86.0242 20.3841C86.1552 20.6465 86.2862 20.7776 86.4172 20.7776H81.3011ZM103.951 21.0587C102.283 21.0587 100.877 20.965 99.7342 20.7776C98.5912 20.5903 97.8042 20.4028 97.3732 20.2154V19.3721L96.7822 16.6172C97.2702 16.9732 98.1792 17.3294 99.5092 17.6854C100.84 18.0414 102.47 18.2195 104.401 18.2195C105.281 18.2195 105.89 18.1352 106.228 17.9665C106.584 17.7978 106.762 17.5073 106.762 17.0951C106.762 16.7764 106.64 16.5328 106.396 16.3642C106.172 16.1955 105.759 16.0644 105.16 15.9706C104.56 15.8582 103.688 15.727 102.545 15.5771C101.102 15.3897 99.9592 15.1273 99.1162 14.79C98.2722 14.4339 97.6732 13.9841 97.3172 13.4406C96.9792 12.8784 96.8112 12.1944 96.8112 11.3885C96.8112 10.6389 96.9892 9.9642 97.3452 9.3645C97.7192 8.7461 98.3572 8.2588 99.2562 7.9027C100.175 7.5279 101.449 7.3405 103.079 7.3405C104.616 7.3405 105.965 7.4342 107.127 7.6216C108.289 7.809 109.123 7.9964 109.629 8.1838V9.0272L110.191 11.501C109.76 11.2198 108.917 10.9294 107.661 10.6295C106.406 10.3297 104.813 10.1797 102.883 10.1797C102.133 10.1797 101.599 10.2547 101.28 10.4046C100.962 10.5546 100.802 10.8169 100.802 11.1917C100.802 11.4354 100.905 11.6415 101.112 11.8102C101.318 11.9601 101.721 12.1007 102.32 12.2318C102.939 12.363 103.857 12.513 105.075 12.6816C106.668 12.8878 107.868 13.1782 108.673 13.5531C109.479 13.9091 110.023 14.3589 110.304 14.9024C110.585 15.4271 110.726 16.0644 110.726 16.814C110.726 18.257 110.182 19.3253 109.095 20.0186C108.008 20.712 106.293 21.0587 103.951 21.0587ZM112.369 20.7776C112.5 20.7776 112.622 20.6465 112.734 20.3841C112.865 20.1217 112.931 19.6907 112.931 19.091V10.4327H110.401V7.6216H113.212L113.24 7.5654C113.184 7.4717 113.072 7.1625 112.903 6.6377C112.734 6.0942 112.65 5.4571 112.65 4.7262C112.65 3.2457 113.072 2.1774 113.915 1.5215C114.777 0.865596 115.948 0.537598 117.429 0.537598C118.628 0.537598 119.687 0.603198 120.605 0.734398C121.524 0.846798 122.189 0.968696 122.602 1.0998V1.9713L123.164 5.0354C122.826 4.7918 122.385 4.5481 121.843 4.3045C121.317 4.0421 120.755 3.8266 120.156 3.658C119.556 3.4706 118.956 3.3768 118.356 3.3768C117.757 3.3768 117.326 3.5174 117.063 3.7985C116.82 4.0796 116.698 4.4919 116.698 5.0354V6.7783C116.698 7.1906 116.735 7.4342 116.81 7.5092C116.885 7.5841 117.138 7.6216 117.569 7.6216H121.786C121.655 7.7903 121.524 8.1182 121.392 8.6055C121.28 9.074 121.224 9.6831 121.224 10.4327H116.979V19.091C116.979 19.6907 117.035 20.1217 117.148 20.3841C117.279 20.6465 117.41 20.7776 117.541 20.7776H112.369ZM128.692 21.0587C126.724 21.0587 125.178 20.787 124.054 20.2435C122.948 19.7 122.17 18.9223 121.72 17.9103C121.271 16.8796 121.046 15.652 121.046 14.2277C121.046 12.11 121.636 10.4327 122.817 9.1958C123.997 7.959 125.806 7.3405 128.242 7.3405C129.666 7.3405 130.819 7.5373 131.7 7.9308C132.599 8.3244 133.284 8.8491 133.752 9.5051C134.22 10.161 134.539 10.8919 134.708 11.6977C134.895 12.4848 134.989 13.2814 134.989 14.0872V15.4084C134.989 15.3522 134.726 15.296 134.202 15.2397C133.696 15.1648 132.834 15.1273 131.615 15.1273H125.094C125.094 16.158 125.403 16.9358 126.021 17.4605C126.658 17.9665 127.69 18.2195 129.114 18.2195C130.313 18.2195 131.381 18.079 132.318 17.7978C133.274 17.498 133.967 17.2169 134.399 16.9545V17.7978L134.68 19.9343C134.324 20.1779 133.64 20.4309 132.628 20.6933C131.616 20.9369 130.304 21.0587 128.692 21.0587ZM126.134 12.7097H130.997C130.997 12.2975 130.903 11.8945 130.716 11.501C130.547 11.1074 130.266 10.7888 129.873 10.5452C129.479 10.2828 128.935 10.1516 128.242 10.1516C127.212 10.1516 126.471 10.3671 126.021 10.7982C125.572 11.2292 125.347 11.679 125.347 12.1475C125.347 12.3349 125.403 12.4754 125.515 12.5692C125.628 12.6629 125.834 12.7097 126.134 12.7097ZM136.237 20.7776C136.369 20.7776 136.49 20.6465 136.602 20.3841C136.734 20.1217 136.799 19.6907 136.799 19.091V9.5894C136.799 8.9897 136.734 8.568 136.602 8.3244C136.49 8.062 136.369 7.9215 136.237 7.9027C137.062 7.9027 137.905 7.8465 138.767 7.7341C139.63 7.6029 140.304 7.4717 140.791 7.3405V8.465L140.734 8.9428L140.791 8.9991C140.923 8.7929 141.128 8.568 141.409 8.3244C141.71 8.062 142.084 7.8371 142.534 7.6497C143.003 7.4436 143.546 7.3405 144.164 7.3405C145.083 7.3405 145.898 7.4717 146.61 7.7341C147.322 7.9777 147.828 8.2307 148.128 8.4931L147.284 12.26V13.1033C147.003 12.7097 146.619 12.3068 146.132 11.8945C145.664 11.4822 145.139 11.1355 144.558 10.8544C143.995 10.5733 143.415 10.4327 142.815 10.4327C142.14 10.4327 141.634 10.6764 141.297 11.1636C140.959 11.6509 140.791 12.4192 140.791 13.4687V19.091C140.791 19.6907 140.847 20.1217 140.959 20.3841C141.091 20.6465 141.222 20.7776 141.353 20.7776H136.237Z" fill="#778CA0"/>
</svg>
